<svg width="112" height="32" viewBox="0 0 112 32" fill="none" xmlns="http://www.w3.org/2000/svg">
<path d="M107 0H31V32H107C109.761 32 112 29.7614 112 27V5C112 2.23858 109.761 0 107 0Z" fill="#0F1418"/>
<path d="M31 0H5C2.23858 0 0 2.23858 0 5V27C0 29.7614 2.23858 32 5 32H31V0Z" fill="#ED1C40"/>
<path d="M8.43995 22.8299C8.48998 23.0892 8.33534 23.3348 8.07608 23.3894C7.83047 23.4394 7.58031 23.2847 7.53028 23.0255C7.48024 22.7799 7.63489 22.5206 7.8805 22.466C8.12611 22.4115 8.38537 22.5706 8.43995 22.8299ZM14.9486 26.0774C14.6621 26.2867 14.5848 26.6869 14.7804 26.9871C14.9896 27.2873 15.3898 27.3646 15.69 27.1554C15.9766 26.9462 16.0539 26.5459 15.8447 26.2457C15.6536 25.9501 15.2488 25.8682 14.9486 26.0774V26.0774ZM11.0371 5.05039C11.3236 4.98671 11.5055 4.70017 11.4419 4.41362C11.3918 4.11343 11.1053 3.9315 10.8187 3.99972C10.5322 4.0634 10.3503 4.34994 10.4048 4.63649C10.4685 4.93668 10.7505 5.11862 11.0371 5.05039V5.05039ZM5.50171 14.279C5.04688 13.9652 4.42375 14.0834 4.10991 14.5519C3.79608 15.0067 3.91434 15.6435 4.36917 15.9573C4.82401 16.2803 5.44713 16.1666 5.76097 15.6981C6.0748 15.2251 5.95655 14.6019 5.50171 14.279V14.279ZM17.8732 6.50586C18.3554 6.21932 18.4964 5.59619 18.2235 5.12771C17.9369 4.64559 17.3274 4.49094 16.8589 4.77749C16.3905 5.06404 16.2358 5.68716 16.5224 6.16929C16.7953 6.63777 17.4048 6.79241 17.8732 6.50586ZM9.18133 9.14391C9.53155 8.8983 9.60887 8.41617 9.37691 8.06595C9.14494 7.71573 8.66282 7.6384 8.32624 7.87037C7.97602 8.11598 7.89869 8.59811 8.13066 8.94833C8.36263 9.3031 8.8402 9.38042 9.18133 9.14391ZM26.1148 16.2393C25.7783 16.3167 25.5554 16.6532 25.6327 17.008C25.6964 17.3446 26.0375 17.5675 26.3741 17.4901C26.7107 17.4265 26.9336 17.0853 26.8562 16.7351C26.788 16.3985 26.4514 16.1757 26.1148 16.2393ZM27.9205 13.6559C27.8705 13.3966 27.6204 13.242 27.3747 13.292C27.1155 13.342 26.9608 13.6058 27.0109 13.8651C27.0609 14.1107 27.3111 14.279 27.5703 14.229C27.8159 14.1607 27.9842 13.9151 27.9205 13.6559ZM24.2682 10.3037C23.8771 10.5766 23.7861 11.1088 24.0453 11.5C24.3046 11.8911 24.8368 11.9821 25.2279 11.7228C25.6054 11.4499 25.6964 10.9178 25.4371 10.5266C25.1779 10.1309 24.6457 10.0308 24.2682 10.3037V10.3037ZM23.9817 16.6441C25.1779 18.6045 24.6685 21.1925 22.7855 22.5161C21.994 23.0755 21.098 23.3211 20.1974 23.2938C19.6516 25.4361 17.0409 26.2321 15.4171 24.7766C15.3671 24.8175 15.2989 24.8539 15.2488 24.9085C13.4704 26.1411 11.0507 25.6999 9.8181 23.8942C9.37691 23.2438 9.15404 22.5024 9.1313 21.761C6.15667 21.2653 5.03778 17.4856 7.26192 15.407C5.97474 13.2738 7.28921 10.5221 9.69074 10.1809C10.8324 7.16992 14.5848 5.74174 17.1319 7.71573C20.1974 6.70144 23.3313 9.05294 23.0856 12.3141C24.955 12.8872 25.4872 15.357 23.9817 16.6441ZM20.7978 20.0236C20.6568 19.0866 18.9375 19.8143 18.8375 18.791C18.6965 17.3355 20.8251 14.1926 20.6568 12.9691C20.5022 11.8775 19.7744 11.6455 19.1377 11.6319C18.5282 11.6182 18.369 11.7228 18.1643 11.8411C18.0324 11.9184 17.8641 12.064 17.6322 11.8274C17.3456 11.5545 17.1273 11.2953 16.7498 11.2407C16.1903 11.1497 15.9447 11.3317 15.5399 11.6819C15.3853 11.8138 14.9941 12.2686 14.6303 12.0958C14.4756 12.0185 13.9298 11.7456 13.5387 11.5773C12.7973 11.2543 11.7193 11.7865 11.3282 12.4869C10.7414 13.5285 9.59978 17.6311 9.43149 18.1769C9.04033 19.3868 9.92726 20.3874 11.1098 20.3192C11.6147 20.2919 11.9422 20.11 12.2651 19.5278C12.447 19.1912 14.1618 14.6292 14.2937 14.4064C14.3846 14.2517 14.6985 14.0425 14.9577 14.1744C15.217 14.3154 15.2716 14.6019 15.2306 14.8612C15.1806 15.3024 13.9571 18.086 13.9162 18.3953C13.7615 19.4368 15.1397 19.6051 15.6718 18.5772C15.8401 18.2543 17.7504 14.3654 17.9187 14.1062C18.1143 13.8196 18.2553 13.7286 18.4509 13.7423C18.5919 13.7423 18.8284 13.7832 18.7738 14.2381C18.7101 14.6656 17.1773 17.5265 17.0045 18.227C16.7953 19.1639 17.3047 20.11 18.137 20.5284C18.6555 20.7877 20.9798 21.2425 20.7978 20.0236V20.0236ZM21.0571 24.2217C20.5886 24.5583 20.4703 25.2223 20.7978 25.7045C21.1208 26.1866 21.7712 26.3003 22.2533 25.9774C22.7354 25.6408 22.8491 24.9767 22.5262 24.4946C22.1896 24.0125 21.5392 23.8806 21.0571 24.2217Z" fill="white"/>
<g filter="url(#filter0_d)">
<path d="M56.8117 22H54.4753V15.7158C54.4753 15.0371 54.5046 14.2876 54.5632 13.4673H54.5046C54.3825 14.1118 54.2727 14.5757 54.175 14.8589L51.7141 22H49.7805L47.2756 14.9321C47.2072 14.7417 47.0974 14.2534 46.946 13.4673H46.8801C46.9436 14.5024 46.9753 15.4106 46.9753 16.1919V22H44.8439V11.4971H48.3083L50.4543 17.7227C50.6252 18.2207 50.7497 18.7212 50.8278 19.2241H50.8718C51.0036 18.6431 51.1428 18.1377 51.2893 17.708L53.4353 11.4971H56.8117V22ZM66.1543 18.9092H61.2617C61.3399 19.998 62.0259 20.5425 63.3198 20.5425C64.145 20.5425 64.8701 20.3472 65.4951 19.9565V21.6265C64.8018 21.9976 63.9009 22.1831 62.7925 22.1831C61.5816 22.1831 60.6416 21.8486 59.9727 21.1797C59.3037 20.5059 58.9693 19.5684 58.9693 18.3672C58.9693 17.1221 59.3306 16.1357 60.0532 15.4082C60.7759 14.6807 61.6646 14.3169 62.7193 14.3169C63.813 14.3169 64.6577 14.6416 65.2534 15.291C65.854 15.9404 66.1543 16.8218 66.1543 17.9351V18.9092ZM64.0083 17.4883C64.0083 16.4141 63.5737 15.877 62.7046 15.877C62.3335 15.877 62.0112 16.0308 61.7378 16.3384C61.4693 16.646 61.3057 17.0293 61.2471 17.4883H64.0083ZM74.4496 18.9092H69.557C69.6351 19.998 70.3211 20.5425 71.6151 20.5425C72.4403 20.5425 73.1654 20.3472 73.7904 19.9565V21.6265C73.097 21.9976 72.1961 22.1831 71.0877 22.1831C69.8768 22.1831 68.9369 21.8486 68.2679 21.1797C67.599 20.5059 67.2645 19.5684 67.2645 18.3672C67.2645 17.1221 67.6258 16.1357 68.3485 15.4082C69.0711 14.6807 69.9598 14.3169 71.0145 14.3169C72.1082 14.3169 72.953 14.6416 73.5487 15.291C74.1493 15.9404 74.4496 16.8218 74.4496 17.9351V18.9092ZM72.3036 17.4883C72.3036 16.4141 71.869 15.877 70.9998 15.877C70.6287 15.877 70.3065 16.0308 70.033 16.3384C69.7645 16.646 69.6009 17.0293 69.5423 17.4883H72.3036ZM80.5402 21.9121C80.1984 22.0928 79.6833 22.1831 78.9948 22.1831C77.3639 22.1831 76.5485 21.3359 76.5485 19.6416V16.2065H75.3327V14.5H76.5485V12.8813L78.8556 12.2222V14.5H80.5402V16.2065H78.8556V19.2388C78.8556 20.02 79.1657 20.4106 79.7858 20.4106C80.0299 20.4106 80.2814 20.3398 80.5402 20.1982V21.9121ZM89.1577 22H86.8506V20.8574H86.8139C86.2427 21.7412 85.4785 22.1831 84.5215 22.1831C82.7832 22.1831 81.914 21.1309 81.914 19.0264V14.5H84.2212V18.8213C84.2212 19.8809 84.6411 20.4106 85.4809 20.4106C85.896 20.4106 86.228 20.2666 86.477 19.9785C86.7261 19.6855 86.8506 19.29 86.8506 18.792V14.5H89.1577V22ZM93.637 21.1284H93.6077V25.4497H91.2933V14.5H93.6077V15.6279H93.637C94.2083 14.7539 95.0115 14.3169 96.0467 14.3169C97.0184 14.3169 97.7679 14.6514 98.2952 15.3203C98.8274 15.9844 99.0936 16.8901 99.0936 18.0376C99.0936 19.2876 98.7835 20.291 98.1634 21.0479C97.5481 21.8047 96.7278 22.1831 95.7024 22.1831C94.7991 22.1831 94.1106 21.8315 93.637 21.1284ZM93.5711 18.0522V18.6528C93.5711 19.1704 93.7078 19.5928 93.9813 19.9199C94.2547 20.2471 94.6136 20.4106 95.0579 20.4106C95.5853 20.4106 95.993 20.208 96.2811 19.8027C96.574 19.3926 96.7205 18.814 96.7205 18.0669C96.7205 16.7485 96.2078 16.0894 95.1824 16.0894C94.7088 16.0894 94.3206 16.27 94.0179 16.6313C93.72 16.9878 93.5711 17.4614 93.5711 18.0522Z" fill="white"/>
</g>
<path d="M107 0H5C2.23858 0 0 2.23858 0 5V27C0 29.7614 2.23858 32 5 32H107C109.761 32 112 29.7614 112 27V5C112 2.23858 109.761 0 107 0Z" fill="url(#paint0_linear)"/>
<defs>
<filter id="filter0_d" x="43.8439" y="11.4971" width="56.2496" height="15.9526" filterUnits="userSpaceOnUse" color-interpolation-filters="sRGB">
<feFlood flood-opacity="0" result="BackgroundImageFix"/>
<feColorMatrix in="SourceAlpha" type="matrix" values="0 0 0 0 0 0 0 0 0 0 0 0 0 0 0 0 0 0 127 0"/>
<feOffset dy="1"/>
<feGaussianBlur stdDeviation="0.5"/>
<feColorMatrix type="matrix" values="0 0 0 0 0 0 0 0 0 0 0 0 0 0 0 0 0 0 1 0"/>
<feBlend mode="normal" in2="BackgroundImageFix" result="effect1_dropShadow"/>
<feBlend mode="normal" in="SourceGraphic" in2="effect1_dropShadow" result="shape"/>
</filter>
<linearGradient id="paint0_linear" x1="0" y1="0" x2="0" y2="32" gradientUnits="userSpaceOnUse">
<stop stop-color="#BBBBBB" stop-opacity="0.1"/>
<stop offset="1" stop-opacity="0.1"/>
</linearGradient>
</defs>
</svg>
