<svg width="155" height="32" viewBox="0 0 155 32" fill="none" xmlns="http://www.w3.org/2000/svg">
<path d="M150 0H31V32H150C152.761 32 155 29.7614 155 27V5C155 2.23858 152.761 0 150 0Z" fill="#0F1418"/>
<path d="M31 0H5C2.23858 0 0 2.23858 0 5V27C0 29.7614 2.23858 32 5 32H31V0Z" fill="#135E96"/>
<path d="M16 4C9.38548 4 4 9.38064 4 16C4 22.6145 9.38548 28 16 28C22.6145 28 28 22.6145 28 16C28 9.38064 22.6145 4 16 4ZM5.20968 16C5.20968 14.4371 5.54355 12.9516 6.14355 11.6113L11.2919 25.7113C7.69194 23.9597 5.20968 20.2677 5.20968 16ZM16 26.7903C14.9403 26.7903 13.9194 26.6355 12.9516 26.35L16.1887 16.9435L19.5032 26.0306C19.5274 26.0839 19.5516 26.1323 19.5806 26.1806C18.4629 26.5726 17.2581 26.7903 16 26.7903V26.7903ZM17.4855 10.9435C18.1339 10.9097 18.7194 10.8419 18.7194 10.8419C19.3 10.7742 19.2323 9.91774 18.6516 9.95161C18.6516 9.95161 16.9048 10.0871 15.7774 10.0871C14.7177 10.0871 12.9371 9.95161 12.9371 9.95161C12.3565 9.91774 12.2887 10.8081 12.8694 10.8419C12.8694 10.8419 13.421 10.9097 14.0016 10.9435L15.6806 15.55L13.3194 22.629L9.39032 10.9435C10.0387 10.9097 10.6242 10.8419 10.6242 10.8419C11.2048 10.7742 11.1371 9.91774 10.5565 9.95161C10.5565 9.95161 8.80968 10.0871 7.68226 10.0871C7.47903 10.0871 7.24194 10.0823 6.98548 10.0726C8.91613 7.14516 12.2306 5.20968 16 5.20968C18.8065 5.20968 21.3661 6.28387 23.2871 8.04032C23.2387 8.03548 23.1952 8.03065 23.1468 8.03065C22.0871 8.03065 21.3371 8.95484 21.3371 9.94677C21.3371 10.8371 21.85 11.5871 22.3968 12.4774C22.8081 13.1935 23.2871 14.1177 23.2871 15.4532C23.2871 16.3774 22.9339 17.4468 22.4645 18.9419L21.3903 22.5371L17.4855 10.9435V10.9435ZM21.4242 25.3242L24.7194 15.7968C25.3339 14.2581 25.5419 13.029 25.5419 11.9306C25.5419 11.5339 25.5177 11.1661 25.4694 10.8226C26.3113 12.3613 26.7903 14.1226 26.7903 16C26.7903 19.9823 24.6323 23.4565 21.4242 25.3242V25.3242Z" fill="white"/>
<g filter="url(#filter0_d)">
<path d="M46.9127 18.3818V22H44.547V11.4971H48.253C50.8995 11.4971 52.2227 12.6128 52.2227 14.8442C52.2227 15.8989 51.8419 16.7534 51.0802 17.4077C50.3233 18.0571 49.3101 18.3818 48.0406 18.3818H46.9127ZM46.9127 13.3135V16.5874H47.8428C49.1026 16.5874 49.7325 16.0356 49.7325 14.9321C49.7325 13.853 49.1026 13.3135 47.8428 13.3135H46.9127ZM60.2616 18.9092H55.369C55.4472 19.998 56.1332 20.5425 57.4271 20.5425C58.2523 20.5425 58.9774 20.3472 59.6024 19.9565V21.6265C58.9091 21.9976 58.0082 22.1831 56.8998 22.1831C55.6889 22.1831 54.7489 21.8486 54.08 21.1797C53.411 20.5059 53.0766 19.5684 53.0766 18.3672C53.0766 17.1221 53.4379 16.1357 54.1605 15.4082C54.8832 14.6807 55.7719 14.3169 56.8266 14.3169C57.9203 14.3169 58.765 14.6416 59.3607 15.291C59.9613 15.9404 60.2616 16.8218 60.2616 17.9351V18.9092ZM58.1156 17.4883C58.1156 16.4141 57.6811 15.877 56.8119 15.877C56.4408 15.877 56.1186 16.0308 55.8451 16.3384C55.5766 16.646 55.413 17.0293 55.3544 17.4883H58.1156ZM66.7112 16.5874C66.4328 16.436 66.1081 16.3604 65.737 16.3604C65.2341 16.3604 64.841 16.5459 64.5578 16.917C64.2746 17.2832 64.133 17.7837 64.133 18.4185V22H61.8186V14.5H64.133V15.8916H64.1623C64.5285 14.876 65.1877 14.3682 66.1399 14.3682C66.384 14.3682 66.5744 14.3975 66.7112 14.4561V16.5874ZM67.5723 21.8022V19.9272C67.9532 20.1567 68.3316 20.3276 68.7076 20.4399C69.0884 20.5522 69.4473 20.6084 69.7842 20.6084C70.1944 20.6084 70.5166 20.5522 70.751 20.4399C70.9903 20.3276 71.1099 20.1567 71.1099 19.9272C71.1099 19.7808 71.0562 19.6587 70.9488 19.561C70.8413 19.4634 70.7022 19.3779 70.5313 19.3047C70.3653 19.2314 70.1822 19.1655 69.982 19.1069C69.7818 19.0483 69.5889 18.9824 69.4034 18.9092C69.1055 18.7969 68.8418 18.6772 68.6123 18.5503C68.3877 18.4185 68.1973 18.2671 68.0411 18.0962C67.8897 17.9253 67.7725 17.7275 67.6895 17.5029C67.6114 17.2783 67.5723 17.0122 67.5723 16.7046C67.5723 16.2847 67.6626 15.9233 67.8433 15.6206C68.0288 15.3179 68.273 15.0713 68.5757 14.8809C68.8833 14.6855 69.2325 14.5439 69.6231 14.4561C70.0186 14.3633 70.4287 14.3169 70.8536 14.3169C71.1856 14.3169 71.5225 14.3438 71.8643 14.3975C72.2061 14.4463 72.543 14.5195 72.875 14.6172V16.4043C72.5821 16.2334 72.2671 16.1064 71.9302 16.0234C71.5982 15.9355 71.271 15.8916 70.9488 15.8916C70.7974 15.8916 70.6534 15.9062 70.5166 15.9355C70.3848 15.96 70.2676 15.999 70.1651 16.0527C70.0625 16.1016 69.982 16.1675 69.9234 16.2505C69.8648 16.3286 69.8355 16.4189 69.8355 16.5215C69.8355 16.6582 69.8794 16.7754 69.9673 16.873C70.0552 16.9707 70.17 17.0562 70.3116 17.1294C70.4532 17.1978 70.6094 17.2612 70.7803 17.3198C70.9561 17.3735 71.1294 17.4297 71.3003 17.4883C71.6079 17.5957 71.8863 17.7129 72.1353 17.8398C72.3843 17.9668 72.5967 18.1157 72.7725 18.2866C72.9532 18.4575 73.0899 18.6577 73.1827 18.8872C73.2803 19.1167 73.3291 19.3901 73.3291 19.7075C73.3291 20.1519 73.2315 20.5327 73.0362 20.8501C72.8457 21.1626 72.5894 21.4189 72.2671 21.6191C71.9497 21.8145 71.5811 21.9561 71.1612 22.0439C70.7461 22.1367 70.314 22.1831 69.8648 22.1831C69.0396 22.1831 68.2754 22.0562 67.5723 21.8022ZM78.4237 22.1831C77.1737 22.1831 76.1898 21.834 75.472 21.1357C74.7591 20.4326 74.4027 19.4805 74.4027 18.2793C74.4027 17.0391 74.7738 16.0698 75.516 15.3716C76.2582 14.6685 77.2616 14.3169 78.5262 14.3169C79.7713 14.3169 80.7479 14.6685 81.4559 15.3716C82.1639 16.0698 82.5179 16.9951 82.5179 18.1475C82.5179 19.3926 82.1517 20.3765 81.4193 21.0991C80.6918 21.8218 79.6932 22.1831 78.4237 22.1831ZM78.4823 16.0894C77.9354 16.0894 77.5106 16.2773 77.2079 16.6533C76.9051 17.0293 76.7538 17.5615 76.7538 18.25C76.7538 19.6904 77.3348 20.4106 78.4969 20.4106C79.6053 20.4106 80.1595 19.6709 80.1595 18.1914C80.1595 16.79 79.6004 16.0894 78.4823 16.0894ZM91.443 22H89.1359V17.8325C89.1359 16.6704 88.7209 16.0894 87.8908 16.0894C87.4904 16.0894 87.1608 16.2432 86.902 16.5508C86.6432 16.8584 86.5138 17.249 86.5138 17.7227V22H84.1994V14.5H86.5138V15.6865H86.5431C87.0949 14.7734 87.8981 14.3169 88.9528 14.3169C90.613 14.3169 91.443 15.3472 91.443 17.4077V22ZM99.7017 22H97.5117V20.9233H97.4824C96.9795 21.7632 96.2349 22.1831 95.2485 22.1831C94.521 22.1831 93.9473 21.978 93.5273 21.5679C93.1123 21.1528 92.9048 20.6011 92.9048 19.9126C92.9048 18.4575 93.7666 17.6177 95.4902 17.3931L97.5264 17.1221C97.5264 16.3018 97.082 15.8916 96.1934 15.8916C95.2998 15.8916 94.4502 16.1577 93.6445 16.6899V14.9468C93.9668 14.7808 94.4062 14.6343 94.9629 14.5073C95.5244 14.3804 96.0347 14.3169 96.4937 14.3169C98.6323 14.3169 99.7017 15.3838 99.7017 17.5176V22ZM97.5264 18.9531V18.4478L96.1641 18.6235C95.4121 18.7212 95.0361 19.0605 95.0361 19.6416C95.0361 19.9053 95.1265 20.1226 95.3071 20.2935C95.4927 20.4595 95.7417 20.5425 96.0542 20.5425C96.4888 20.5425 96.8428 20.3936 97.1162 20.0957C97.3896 19.793 97.5264 19.4121 97.5264 18.9531ZM104.027 22H101.713V10.8965H104.027V22ZM110.972 22V11.4971H114.795C115.967 11.4971 116.868 11.7119 117.498 12.1416C118.127 12.5713 118.442 13.1768 118.442 13.958C118.442 14.5244 118.249 15.02 117.864 15.4448C117.483 15.8696 116.995 16.165 116.399 16.3311V16.3604C117.146 16.4531 117.742 16.729 118.186 17.188C118.635 17.647 118.86 18.2061 118.86 18.8652C118.86 19.8271 118.516 20.5913 117.827 21.1577C117.139 21.7192 116.199 22 115.007 22H110.972ZM113.337 13.2402V15.7305H114.377C114.866 15.7305 115.249 15.6133 115.527 15.3789C115.811 15.1396 115.952 14.8125 115.952 14.3975C115.952 13.626 115.376 13.2402 114.224 13.2402H113.337ZM113.337 17.4883V20.2568H114.619C115.166 20.2568 115.593 20.1299 115.901 19.876C116.213 19.6221 116.37 19.2754 116.37 18.8359C116.37 18.416 116.216 18.0864 115.908 17.8472C115.605 17.6079 115.181 17.4883 114.634 17.4883H113.337ZM123.127 22H120.812V10.8965H123.127V22ZM128.829 22.1831C127.579 22.1831 126.595 21.834 125.878 21.1357C125.165 20.4326 124.808 19.4805 124.808 18.2793C124.808 17.0391 125.179 16.0698 125.921 15.3716C126.664 14.6685 127.667 14.3169 128.932 14.3169C130.177 14.3169 131.153 14.6685 131.861 15.3716C132.569 16.0698 132.923 16.9951 132.923 18.1475C132.923 19.3926 132.557 20.3765 131.825 21.0991C131.097 21.8218 130.099 22.1831 128.829 22.1831ZM128.888 16.0894C128.341 16.0894 127.916 16.2773 127.613 16.6533C127.311 17.0293 127.159 17.5615 127.159 18.25C127.159 19.6904 127.74 20.4106 128.902 20.4106C130.011 20.4106 130.565 19.6709 130.565 18.1914C130.565 16.79 130.006 16.0894 128.888 16.0894ZM141.958 21.1431C141.958 22.5347 141.556 23.6113 140.75 24.373C139.944 25.1396 138.777 25.5229 137.249 25.5229C136.238 25.5229 135.437 25.3789 134.847 25.0908V23.1426C135.618 23.5918 136.397 23.8164 137.183 23.8164C137.964 23.8164 138.57 23.6089 138.999 23.1938C139.429 22.7837 139.644 22.2246 139.644 21.5166V20.9233H139.615C139.087 21.7632 138.309 22.1831 137.278 22.1831C136.321 22.1831 135.562 21.8462 135 21.1724C134.439 20.4985 134.158 19.5952 134.158 18.4624C134.158 17.1929 134.471 16.1846 135.096 15.4375C135.721 14.6904 136.543 14.3169 137.564 14.3169C138.477 14.3169 139.161 14.6685 139.615 15.3716H139.644V14.5H141.958V21.1431ZM139.673 18.3965V17.8032C139.673 17.3296 139.532 16.9268 139.248 16.5947C138.97 16.2578 138.606 16.0894 138.157 16.0894C137.644 16.0894 137.242 16.2896 136.949 16.6899C136.656 17.0903 136.509 17.6543 136.509 18.3818C136.509 19.0068 136.648 19.5024 136.927 19.8687C137.205 20.23 137.586 20.4106 138.069 20.4106C138.548 20.4106 138.934 20.2275 139.226 19.8613C139.524 19.4902 139.673 19.002 139.673 18.3965Z" fill="white"/>
</g>
<path d="M150 0H5C2.23858 0 0 2.23858 0 5V27C0 29.7614 2.23858 32 5 32H150C152.761 32 155 29.7614 155 27V5C155 2.23858 152.761 0 150 0Z" fill="url(#paint0_linear)"/>
<defs>
<filter id="filter0_d" x="43.547" y="10.8965" width="99.4115" height="16.6265" filterUnits="userSpaceOnUse" color-interpolation-filters="sRGB">
<feFlood flood-opacity="0" result="BackgroundImageFix"/>
<feColorMatrix in="SourceAlpha" type="matrix" values="0 0 0 0 0 0 0 0 0 0 0 0 0 0 0 0 0 0 127 0"/>
<feOffset dy="1"/>
<feGaussianBlur stdDeviation="0.5"/>
<feColorMatrix type="matrix" values="0 0 0 0 0 0 0 0 0 0 0 0 0 0 0 0 0 0 1 0"/>
<feBlend mode="normal" in2="BackgroundImageFix" result="effect1_dropShadow"/>
<feBlend mode="normal" in="SourceGraphic" in2="effect1_dropShadow" result="shape"/>
</filter>
<linearGradient id="paint0_linear" x1="0" y1="0" x2="0" y2="32" gradientUnits="userSpaceOnUse">
<stop stop-color="#BBBBBB" stop-opacity="0.1"/>
<stop offset="1" stop-opacity="0.1"/>
</linearGradient>
</defs>
</svg>
